{
    "asset" : {
        "generator" : "Khronos glTF Blender I/O v1.8.19",
        "version" : "2.0"
    },
    "scene" : 0,
    "scenes" : [
        {
            "name" : "Scene",
            "nodes" : [
                0
            ]
        }
    ],
    "nodes" : [
        {
            "mesh" : 0,
            "name" : "Sphere"
        }
    ],
    "materials" : [
        {
            "doubleSided" : true,
            "name" : "Material.001",
            "pbrMetallicRoughness" : {
                "baseColorFactor" : [
                    0.05726125091314316,
                    0.14544577896595,
                    0.8000000715255737,
                    1
                ],
                "metallicFactor" : 0,
                "roughnessFactor" : 0.5
            }
        }
    ],
    "meshes" : [
        {
            "name" : "Sphere",
            "primitives" : [
                {
                    "attributes" : {
                        "POSITION" : 0,
                        "NORMAL" : 1,
                        "TEXCOORD_0" : 2
                    },
                    "indices" : 3,
                    "material" : 0
                }
            ]
        }
    ],
    "accessors" : [
        {
            "bufferView" : 0,
            "componentType" : 5126,
            "count" : 2666,
            "max" : [
                1.0467283725738525,
                1,
                0.9999839663505554
            ],
            "min" : [
                -1.0627156496047974,
                -1,
                -0.988263726234436
            ],
            "type" : "VEC3"
        },
        {
            "bufferView" : 1,
            "componentType" : 5126,
            "count" : 2666,
            "type" : "VEC3"
        },
        {
            "bufferView" : 2,
            "componentType" : 5126,
            "count" : 2666,
            "type" : "VEC2"
        },
        {
            "bufferView" : 3,
            "componentType" : 5123,
            "count" : 3870,
            "type" : "SCALAR"
        }
    ],
    "bufferViews" : [
        {
            "buffer" : 0,
            "byteLength" : 31992,
            "byteOffset" : 0
        },
        {
            "buffer" : 0,
            "byteLength" : 31992,
            "byteOffset" : 31992
        },
        {
            "buffer" : 0,
            "byteLength" : 21328,
            "byteOffset" : 63984
        },
        {
            "buffer" : 0,
            "byteLength" : 7740,
            "byteOffset" : 85312
        }
    ],
    "buffers" : [
        {
            "byteLength" : 93052,
            "uri" : "data:application/octet-stream;base64,"
        }
    ]
}
