{
    "asset" : {
        "generator" : "Khronos glTF Blender I/O v1.8.19",
        "version" : "2.0"
    },
    "scene" : 0,
    "scenes" : [
        {
            "name" : "Scene",
            "nodes" : [
                0
            ]
        }
    ],
    "nodes" : [
        {
            "mesh" : 0,
            "name" : "Icosphere",
            "translation" : [
                0.039869170635938644,
                0.02237481251358986,
                0.020491639152169228
            ]
        }
    ],
    "materials" : [
        {
            "doubleSided" : true,
            "name" : "Procedural Earth",
            "pbrMetallicRoughness" : {
                "metallicFactor" : 0,
                "roughnessFactor" : 0.5
            }
        }
    ],
    "meshes" : [
        {
            "name" : "Icosphere",
            "primitives" : [
                {
                    "attributes" : {
                        "POSITION" : 0,
                        "NORMAL" : 1,
                        "TEXCOORD_0" : 2
                    },
                    "indices" : 3,
                    "material" : 0
                }
            ]
        }
    ],
    "accessors" : [
        {
            "bufferView" : 0,
            "componentType" : 5126,
            "count" : 61440,
            "max" : [
                1,
                1,
                0.9999999403953552
            ],
            "min" : [
                -0.9999999403953552,
                -1,
                -0.9999999403953552
            ],
            "type" : "VEC3"
        },
        {
            "bufferView" : 1,
            "componentType" : 5126,
            "count" : 61440,
            "type" : "VEC3"
        },
        {
            "bufferView" : 2,
            "componentType" : 5126,
            "count" : 61440,
            "type" : "VEC2"
        },
        {
            "bufferView" : 3,
            "componentType" : 5123,
            "count" : 61440,
            "type" : "SCALAR"
        }
    ],
    "bufferViews" : [
        {
            "buffer" : 0,
            "byteLength" : 737280,
            "byteOffset" : 0
        },
        {
            "buffer" : 0,
            "byteLength" : 737280,
            "byteOffset" : 737280
        },
        {
            "buffer" : 0,
            "byteLength" : 491520,
            "byteOffset" : 1474560
        },
        {
            "buffer" : 0,
            "byteLength" : 122880,
            "byteOffset" : 1966080
        }
    ],
    "buffers" : [
        {
            "byteLength" : 2088960,
            "uri" : "data:application/octet-stream;base64,"
        }
    ]
}
